<svg width="46" height="46" viewBox="0 0 46 46" fill="none" xmlns="http://www.w3.org/2000/svg">
<path d="M22.5236 0.421875C10.2079 0.421875 0.220581 10.4092 0.220581 22.7249C0.220581 35.0406 10.2079 45.0279 22.5236 45.0279C34.8393 45.0279 44.8266 35.0406 44.8266 22.7249C44.8266 10.4092 34.8393 0.421875 22.5236 0.421875ZM32.7069 17.8114C32.7168 18.0309 32.7215 18.2514 32.7215 18.4729C32.7215 25.2374 27.5726 33.0379 18.1563 33.0382H18.1567H18.1563C15.2654 33.0382 12.5751 32.1908 10.3096 30.7388C10.7102 30.786 11.1179 30.8094 11.5307 30.8094C13.9292 30.8094 16.1366 29.9913 17.8889 28.6182C15.6479 28.5766 13.7584 27.0967 13.1063 25.0625C13.4184 25.1224 13.7393 25.1551 14.0684 25.1551C14.5356 25.1551 14.9882 25.0922 15.4184 24.9747C13.0761 24.5058 11.3115 22.4356 11.3115 19.9568C11.3115 19.9336 11.3115 19.9129 11.3122 19.8914C12.002 20.275 12.7909 20.5057 13.6308 20.5315C12.2562 19.6144 11.3527 18.0465 11.3527 16.2705C11.3527 15.3325 11.6062 14.4538 12.0459 13.6973C14.5703 16.7949 18.3432 18.832 22.5978 19.0461C22.5099 18.671 22.4648 18.2804 22.4648 17.8788C22.4648 15.0528 24.7574 12.7601 27.5844 12.7601C29.057 12.7601 30.387 13.3825 31.3212 14.3777C32.4875 14.1475 33.5826 13.7215 34.5718 13.1351C34.1891 14.33 33.3777 15.3325 32.3206 15.9665C33.3562 15.8427 34.3432 15.5681 35.2603 15.1604C34.5753 16.187 33.7065 17.0889 32.7069 17.8114Z" fill="#13262D"/>
</svg>
