<svg width="13" height="14" viewBox="0 0 13 14" fill="none" xmlns="http://www.w3.org/2000/svg">
<mask id="path-1-inside-1_423_12424" fill="white">
<path fill-rule="evenodd" clip-rule="evenodd" d="M12.738 8.86838C11.8456 9.95526 10.4915 10.6486 8.97546 10.6486C6.28812 10.6486 4.10961 8.47008 4.10961 5.78275C4.10961 3.42357 5.78856 1.45654 8.01678 1.01131C7.6698 0.949811 7.31267 0.917725 6.94803 0.917725C3.58887 0.917725 0.865723 3.64087 0.865723 7.00003C0.865723 10.3592 3.58887 13.0823 6.94803 13.0823C9.65539 13.0823 11.9496 11.3135 12.738 8.86838Z"/>
</mask>
<path d="M12.738 8.86838L13.5098 9.11725L12.1112 8.35376L12.738 8.86838ZM8.01678 1.01131L8.17568 1.80657L8.15832 0.212788L8.01678 1.01131ZM12.1112 8.35376C11.3663 9.26108 10.2385 9.83762 8.97546 9.83762V11.4596C10.7445 11.4596 12.325 10.6494 13.3648 9.38299L12.1112 8.35376ZM8.97546 9.83762C6.73601 9.83762 4.92058 8.02219 4.92058 5.78275H3.29863C3.29863 8.91797 5.84023 11.4596 8.97546 11.4596V9.83762ZM4.92058 5.78275C4.92058 3.8177 6.31919 2.17752 8.17568 1.80657L7.85788 0.21606C5.25792 0.735562 3.29863 3.02945 3.29863 5.78275H4.92058ZM6.94803 1.7287C7.265 1.7287 7.57477 1.75658 7.87523 1.80984L8.15832 0.212788C7.76483 0.143039 7.36033 0.10675 6.94803 0.10675V1.7287ZM1.6767 7.00003C1.6767 4.08876 4.03675 1.7287 6.94803 1.7287V0.10675C3.14098 0.10675 0.0547481 3.19298 0.0547481 7.00003H1.6767ZM6.94803 12.2714C4.03675 12.2714 1.6767 9.91131 1.6767 7.00003H0.0547481C0.0547481 10.8071 3.14098 13.8933 6.94803 13.8933V12.2714ZM11.9662 8.6195C11.2826 10.7394 9.29317 12.2714 6.94803 12.2714V13.8933C10.0176 13.8933 12.6166 11.8875 13.5098 9.11725L11.9662 8.6195Z" fill="white" mask="url(#path-1-inside-1_423_12424)"/>
</svg>
