<svg width="200" height="60" viewBox="0 0 200 60" fill="none" xmlns="http://www.w3.org/2000/svg">
<path d="M160.155 20.3784C157.886 17.3604 156.585 13.8994 156.585 10.1892C156.585 6.479 157.886 3.018 160.155 0C162.424 3.018 163.724 6.479 163.724 10.1892C163.724 13.8717 162.424 17.3604 160.155 20.3784ZM165.661 14.1486C163.586 16.2252 162.507 19.1048 162.396 22.3719C165.661 22.2335 168.511 21.1814 170.614 19.1048C172.69 17.0282 173.769 14.1486 173.879 10.8814C170.614 10.9922 167.764 12.0443 165.661 14.1486ZM157.997 22.3719C157.637 19.7693 156.585 17.4435 154.759 15.6161C152.933 13.7886 150.609 12.7365 148.008 12.3766C148.367 14.9792 149.419 17.305 151.245 19.1324C153.071 20.9322 155.423 22.012 157.997 22.3719ZM109.961 49.7H112.147V58.9479H107.471C104.676 58.9479 102.214 57.5358 100.747 55.3761C98.4228 58.228 95.1024 60 90.8135 60C81.8207 60 74.5158 52.3027 74.5158 42.8057C74.5158 33.3087 81.793 25.7776 90.8135 25.7776C94.2999 25.7776 97.15 27.5773 99.3359 30.0969V26.719H108.578V48.3433C108.605 49.0909 109.214 49.7 109.961 49.7ZM99.3636 40.0369C98.2291 36.9359 95.4067 34.7208 92.0586 34.7208C87.7144 34.7208 84.2003 38.431 84.2003 43.0272C84.2003 47.5958 87.7144 51.3336 92.0586 51.3336C95.4067 51.3336 98.2291 49.1186 99.3636 46.0175V40.0369ZM151.854 42.778C151.854 52.275 144.577 59.9723 135.556 59.9723C132.07 59.9723 129.22 58.8094 127.034 56.8436V59.0309H117.792V13.5118H127.034V30.0415C129.22 27.5496 132.07 25.7222 135.556 25.7222C144.577 25.7499 151.854 33.281 151.854 42.778ZM142.197 42.9995C142.197 38.431 138.683 34.6931 134.339 34.6931C130.991 34.6931 128.168 36.9082 127.034 40.0092V45.9622C128.168 49.0632 130.991 51.2783 134.339 51.2783C138.683 51.306 142.197 47.5958 142.197 42.9995ZM30.6032 48.3987V26.719H21.3614V47.6511C20.974 48.731 19.8118 50.7522 16.1594 50.7522H12.4239C9.7399 50.7522 9.24184 49.1186 9.24184 46.7928V26.719H0V49.617C0 56.4282 5.42335 59.9723 11.5661 59.9723C18.5667 59.9723 21.5827 57.425 22.8556 55.5422C24.3221 57.6465 26.7571 59.0032 29.4964 59.0032H34.1727V49.7554H31.9867C31.212 49.7831 30.6032 49.174 30.6032 48.3987ZM165.136 48.3433V26.719H155.894V50.8076C155.894 55.293 159.546 58.9479 164.029 58.9479H168.705V49.7H166.519C165.744 49.7 165.136 49.0909 165.136 48.3433ZM59.3248 25.7499C52.5456 25.7499 49.4189 28.4079 48.0354 30.2907C46.5689 28.1311 44.1062 26.719 41.3116 26.719H36.6353V35.9668H38.8212C39.5683 35.9668 40.1771 36.5759 40.1771 37.3235V58.9479H49.4189V38.3479C49.8893 37.3789 51.4665 34.9977 56.1704 34.9977H58.3564C60.6253 34.9977 61.5385 37.0466 61.5385 38.9571V58.9479H70.7803V36.1329C70.808 31.6198 67.5152 25.7499 59.3248 25.7499ZM184.726 36.0222C184.726 35.1361 185.418 34.4439 187.77 34.4439C190.564 34.4439 194.106 35.5791 196.015 37.102L199.751 29.4878C196.458 26.8297 192.28 25.7499 188.074 25.7499C180.52 25.7499 174.488 29.377 174.488 36.1052C174.488 46.8482 189.79 46.0729 189.79 49.5616C189.79 50.5861 189.015 51.2783 186.801 51.2783C183.702 51.2783 180.326 50.0046 177.919 47.9834L173.215 55.1546C176.84 58.3941 181.848 59.9723 186.552 59.9723C194.936 59.9723 200 55.3484 200 49.2294C200.028 38.6248 184.726 39.4555 184.726 36.0222Z" fill="white"/>
</svg>
