<svg width="131" height="40" viewBox="0 0 131 40" fill="none" xmlns="http://www.w3.org/2000/svg">
<path d="M104.901 13.5856C103.415 11.5736 102.563 9.26627 102.563 6.7928C102.563 4.31934 103.415 2.012 104.901 0C106.388 2.012 107.239 4.31934 107.239 6.7928C107.239 9.24781 106.388 11.5736 104.901 13.5856ZM108.508 9.43239C107.149 10.8168 106.442 12.7365 106.37 14.9146C108.508 14.8223 110.375 14.1209 111.752 12.7365C113.112 11.3521 113.818 9.43239 113.891 7.25427C111.752 7.3281 109.886 8.02953 108.508 9.43239ZM103.488 14.9146C103.252 13.1795 102.563 11.629 101.367 10.4107C100.171 9.19243 98.6487 8.491 96.9451 8.25104C97.1807 9.98616 97.8694 11.5367 99.0656 12.755C100.262 13.9548 101.802 14.6747 103.488 14.9146ZM72.0246 33.1334H73.4564V39.2986H70.3935C68.5629 39.2986 66.9499 38.3572 65.9893 36.9174C64.4669 38.8186 62.2921 40 59.4828 40C53.5926 40 48.8078 34.8685 48.8078 28.5371C48.8078 22.2058 53.5744 17.185 59.4828 17.185C61.7665 17.185 63.6332 18.3849 65.065 20.0646V17.8126H71.1184V32.2289C71.1365 32.7273 71.5353 33.1334 72.0246 33.1334ZM65.0831 26.6913C64.3401 24.6239 62.4914 23.1472 60.2984 23.1472C57.453 23.1472 55.1512 25.6207 55.1512 28.6848C55.1512 31.7305 57.453 34.2224 60.2984 34.2224C62.4914 34.2224 64.3401 32.7457 65.0831 30.6784V26.6913ZM99.4643 28.5187C99.4643 34.85 94.6977 39.9815 88.7893 39.9815C86.5057 39.9815 84.6389 39.2063 83.2071 37.8957V39.3539H77.1537V9.00784H83.2071V20.0277C84.6389 18.3664 86.5057 17.1481 88.7893 17.1481C94.6977 17.1666 99.4643 22.1874 99.4643 28.5187ZM93.139 28.6664C93.139 25.6207 90.8373 23.1287 87.9918 23.1287C85.7988 23.1287 83.9502 24.6054 83.2071 26.6728V30.6414C83.9502 32.7088 85.7988 34.1855 87.9918 34.1855C90.8373 34.204 93.139 31.7305 93.139 28.6664ZM20.0451 32.2658V17.8126H13.9917V31.7674C13.738 32.4873 12.9768 33.8348 10.5844 33.8348H8.13766C6.37963 33.8348 6.0534 32.7457 6.0534 31.1952V17.8126H0V33.078C0 37.6188 3.5523 39.9815 7.57582 39.9815C12.1612 39.9815 14.1367 38.2833 14.9704 37.0282C15.931 38.431 17.5259 39.3355 19.3201 39.3355H22.3831V33.1703H20.9513C20.4438 33.1887 20.0451 32.7826 20.0451 32.2658ZM108.164 32.2289V17.8126H102.11V33.8717C102.11 36.862 104.503 39.2986 107.439 39.2986H110.502V33.1334H109.07C108.563 33.1334 108.164 32.7273 108.164 32.2289ZM38.8578 17.1666C34.4174 17.1666 32.3694 18.9386 31.4632 20.1938C30.5026 18.754 28.8896 17.8126 27.0591 17.8126H23.9961V23.9778H25.4279C25.9173 23.9778 26.316 24.3839 26.316 24.8823V39.2986H32.3694V25.5653C32.6775 24.9192 33.7106 23.3318 36.7916 23.3318H38.2234C39.7096 23.3318 40.3077 24.6977 40.3077 25.9714V39.2986H46.3611V24.0886C46.3792 21.0798 44.2225 17.1666 38.8578 17.1666ZM120.996 24.0148C120.996 23.4241 121.449 22.9626 122.989 22.9626C124.82 22.9626 127.14 23.7194 128.39 24.7347L130.837 19.6585C128.68 17.8865 125.943 17.1666 123.189 17.1666C118.241 17.1666 114.29 19.5847 114.29 24.0701C114.29 31.2321 124.312 30.7153 124.312 33.0411C124.312 33.724 123.805 34.1855 122.355 34.1855C120.325 34.1855 118.114 33.3364 116.537 31.9889L113.456 36.7697C115.83 38.9294 119.111 39.9815 122.192 39.9815C127.683 39.9815 131 36.8989 131 32.8196C131.018 25.7499 120.996 26.3036 120.996 24.0148Z" fill="#202B32"/>
</svg>
